<svg xmlns="http://www.w3.org/2000/svg" width="19" height="20" viewBox="0 0 19 20"><g><g><path fill="#fff" d="M8 18a1 1 0 0 1 0 2H3a3 3 0 0 1-3-3V3a3 3 0 0 1 3-3h6.06l.32.11a.318.318 0 0 1 .09 0c.102.048.197.112.28.19l6 6c.078.083.142.177.19.28v.09c.03.087.05.178.06.27V8a1 1 0 0 1-2 0h-3a3 3 0 0 1-3-3V2H3a1 1 0 0 0-1 1v14a1 1 0 0 0 1 1zm2-13a1 1 0 0 0 1 1h1.59L10 3.41V5zM6 6a1 1 0 0 1 0 2H5a1 1 0 1 1 0-2h1zm12.63 5.86a1 1 0 0 1 .37.77V15a4.6 4.6 0 0 1-1.84 3.64L15.6 19.8a1 1 0 0 1-1.2 0l-1.56-1.11A4.6 4.6 0 0 1 11 15v-2.34a1 1 0 0 1 1.21-1c.766.16 1.565-.01 2.2-.47a1 1 0 0 1 1.18 0 2.77 2.77 0 0 0 2.2.47 1 1 0 0 1 .84.2zM17 13.72a4.678 4.678 0 0 1-2-.55c-.617.33-1.3.518-2 .55V15a2.62 2.62 0 0 0 1 2.09l1 .72 1-.72A2.62 2.62 0 0 0 17 15v-1.28zm-9 .33a1 1 0 0 1 0 2H5a1 1 0 1 1 0-2zm1-4a1 1 0 1 1 0 2H5a1 1 0 0 1 0-2z"/></g></g></svg>