<svg xmlns="http://www.w3.org/2000/svg" width="20" height="20" viewBox="0 0 20 20"><g><g><path fill="#fff" d="M2.93 15.66a1 1 0 1 1 1.41 1.42 1 1 0 0 1-1.41-1.42zM17.07 4.34a1 1 0 1 1-1.41-1.418 1 1 0 0 1 1.41 1.418zm-12.73 0a1 1 0 1 1-1.41-1.418A1 1 0 0 1 4.34 4.34zm11.32 11.32a1 1 0 1 1 1.41 1.42 1 1 0 0 1-1.41-1.42zM19 9a1 1 0 0 1 0 2h-1.59l1.3 1.29a1 1 0 0 1 0 1.42.999.999 0 0 1-1.42 0L14.59 11h-2.18l2.3 2.29a1 1 0 0 1 0 1.42.999.999 0 0 1-1.42 0L11 12.41v2.18l2.71 2.7a1 1 0 0 1 0 1.42.999.999 0 0 1-1.42 0L11 17.41V19a1 1 0 0 1-2 0v-1.59l-1.29 1.3a1.003 1.003 0 1 1-1.42-1.42L9 14.59v-2.18l-2.29 2.3a.999.999 0 0 1-1.42 0 1 1 0 0 1 0-1.42L7.59 11H5.41l-2.7 2.71a.999.999 0 0 1-1.42 0 1 1 0 0 1 0-1.42L2.59 11H1a1 1 0 1 1 0-2h1.59l-1.3-1.29a1.004 1.004 0 1 1 1.42-1.42L5.41 9h2.18l-2.3-2.29a1.004 1.004 0 0 1 1.42-1.42L9 7.59V5.41l-2.71-2.7a1.004 1.004 0 1 1 1.42-1.42L9 2.59V1a1 1 0 0 1 2 0v1.59l1.29-1.3a1.004 1.004 0 0 1 1.42 1.42L11 5.41v2.18l2.29-2.3a1.004 1.004 0 1 1 1.42 1.42L12.41 9h2.18l2.7-2.71a1.004 1.004 0 0 1 1.42 1.42L17.41 9z"/></g></g></svg>